<svg xmlns="http://www.w3.org/2000/svg" viewBox="0 0 24 24" fill="#fff"><path d="M12 .5A11.5 11.5 0 0 0 .5 12.3c0 5.24 3.4 9.68 8.13 11.25.6.1.82-.27.82-.6v-2.2c-3.3.73-4-1.6-4-1.6-.55-1.43-1.34-1.8-1.34-1.8-1.1-.78.08-.76.08-.76 1.2.09 1.83 1.25 1.83 1.25 1.07 1.84 2.8 1.3 3.48.98.1-.8.42-1.3.76-1.6-2.64-.3-5.4-1.35-5.4-6 0-1.33.47-2.42 1.25-3.27-.13-.3-.54-1.6.12-3.3 0 0 1-.33 3.3 1.25a11.2 11.2 0 0 1 6 0c2.3-1.58 3.3-1.25 3.3-1.25.66 1.7.25 3 .12 3.3.78.85 1.25 1.94 1.25 3.27 0 4.68-2.76 5.7-5.4 6 .44.38.82 1.1.82 2.24v3.32c0 .33.22.72.83.6A11.51 11.51 0 0 0 23.5 12.3 11.5 11.5 0 0 0 12 .5z"/></svg>
