<svg xmlns="http://www.w3.org/2000/svg" viewBox="0 0 256 256" role="img" aria-label="ORCID">
  <title>ORCID</title>
  <circle cx="128" cy="128" r="128" fill="#A6CE39"/>
  <g fill="#fff">
    <path d="M86.3 69.4h17.5v117.1H86.3z"/>
    <path d="M119.2 127.8c0-29.7 22.7-52.8 52.6-52.8 29.8 0 52.4 23.1 52.4 52.8 0 29.8-22.6 52.8-52.4 52.8-29.9 0-52.6-23-52.6-52.8zm88.1 0c0-20.1-14.7-35.7-35.5-35.7-21 0-35.7 15.6-35.7 35.7 0 20.2 14.7 35.7 35.7 35.7 20.8 0 35.5-15.5 35.5-35.7z"/>
    <circle cx="95" cy="93.2" r="9.1"/>
  </g>
</svg>
